<mxfile host="app.diagrams.net" agent="Mozilla/5.0 (Windows NT 10.0; Win64; x64) AppleWebKit/537.36 (KHTML, like Gecko) Chrome/132.0.0.0 Safari/537.36" version="26.0.11">
  <diagram name="第 1 页" id="NapBa_4jsP92bjO2H-pE">
    <mxGraphModel dx="794" dy="458" grid="1" gridSize="10" guides="1" tooltips="1" connect="1" arrows="1" fold="1" page="1" pageScale="1" pageWidth="827" pageHeight="1169" math="0" shadow="0">
      <root>
        <mxCell id="0" />
        <mxCell id="1" parent="0" />
        <mxCell id="fP9jHZuSAZ6qbJ5GN3kD-1" value="&lt;b&gt;&lt;font style=&quot;font-size: 14px;&quot;&gt;x&lt;/font&gt;&lt;/b&gt;" style="ellipse;whiteSpace=wrap;html=1;aspect=fixed;fillColor=light-dark(#FF9999,var(--ge-dark-color, #121212));" vertex="1" parent="1">
          <mxGeometry x="220" y="370" width="30" height="30" as="geometry" />
        </mxCell>
        <mxCell id="fP9jHZuSAZ6qbJ5GN3kD-3" value="Z1" style="ellipse;whiteSpace=wrap;html=1;aspect=fixed;fillColor=light-dark(#FFFFCC,var(--ge-dark-color, #121212));" vertex="1" parent="1">
          <mxGeometry x="290" y="370" width="30" height="30" as="geometry" />
        </mxCell>
        <mxCell id="fP9jHZuSAZ6qbJ5GN3kD-4" value="Z2" style="ellipse;whiteSpace=wrap;html=1;aspect=fixed;fillColor=light-dark(#FFFFCC,var(--ge-dark-color, #121212));" vertex="1" parent="1">
          <mxGeometry x="360" y="370" width="30" height="30" as="geometry" />
        </mxCell>
        <mxCell id="fP9jHZuSAZ6qbJ5GN3kD-5" value="Z3" style="ellipse;whiteSpace=wrap;html=1;aspect=fixed;fillColor=light-dark(#FFFFCC,var(--ge-dark-color, #121212));" vertex="1" parent="1">
          <mxGeometry x="500" y="370" width="30" height="30" as="geometry" />
        </mxCell>
        <mxCell id="fP9jHZuSAZ6qbJ5GN3kD-6" value="Z4" style="ellipse;whiteSpace=wrap;html=1;aspect=fixed;fillColor=light-dark(#FFFFCC,var(--ge-dark-color, #121212));" vertex="1" parent="1">
          <mxGeometry x="570" y="370" width="30" height="30" as="geometry" />
        </mxCell>
        <mxCell id="fP9jHZuSAZ6qbJ5GN3kD-7" value="&lt;b&gt;&lt;font style=&quot;font-size: 14px;&quot;&gt;y&lt;/font&gt;&lt;/b&gt;" style="ellipse;whiteSpace=wrap;html=1;aspect=fixed;fillColor=light-dark(#E6FFCC,var(--ge-dark-color, #121212));" vertex="1" parent="1">
          <mxGeometry x="640" y="370" width="30" height="30" as="geometry" />
        </mxCell>
        <mxCell id="fP9jHZuSAZ6qbJ5GN3kD-8" value="" style="endArrow=classic;html=1;rounded=0;exitX=1;exitY=0.5;exitDx=0;exitDy=0;entryX=0;entryY=0.5;entryDx=0;entryDy=0;" edge="1" parent="1" source="fP9jHZuSAZ6qbJ5GN3kD-1" target="fP9jHZuSAZ6qbJ5GN3kD-3">
          <mxGeometry width="50" height="50" relative="1" as="geometry">
            <mxPoint x="380" y="470" as="sourcePoint" />
            <mxPoint x="430" y="420" as="targetPoint" />
          </mxGeometry>
        </mxCell>
        <mxCell id="fP9jHZuSAZ6qbJ5GN3kD-9" value="" style="endArrow=classic;html=1;rounded=0;exitX=1;exitY=0.5;exitDx=0;exitDy=0;entryX=0;entryY=0.5;entryDx=0;entryDy=0;" edge="1" parent="1" source="fP9jHZuSAZ6qbJ5GN3kD-3" target="fP9jHZuSAZ6qbJ5GN3kD-4">
          <mxGeometry width="50" height="50" relative="1" as="geometry">
            <mxPoint x="380" y="470" as="sourcePoint" />
            <mxPoint x="430" y="420" as="targetPoint" />
          </mxGeometry>
        </mxCell>
        <mxCell id="fP9jHZuSAZ6qbJ5GN3kD-10" value="" style="endArrow=classic;html=1;rounded=0;exitX=1;exitY=0.5;exitDx=0;exitDy=0;" edge="1" parent="1" source="fP9jHZuSAZ6qbJ5GN3kD-4">
          <mxGeometry width="50" height="50" relative="1" as="geometry">
            <mxPoint x="380" y="470" as="sourcePoint" />
            <mxPoint x="420" y="385" as="targetPoint" />
          </mxGeometry>
        </mxCell>
        <mxCell id="fP9jHZuSAZ6qbJ5GN3kD-17" value="&lt;b&gt;&lt;font style=&quot;font-size: 18px;&quot;&gt;.....&lt;/font&gt;&lt;/b&gt;" style="text;html=1;align=center;verticalAlign=middle;resizable=0;points=[];autosize=1;strokeColor=none;fillColor=none;" vertex="1" parent="1">
          <mxGeometry x="413.5" y="360" width="50" height="40" as="geometry" />
        </mxCell>
        <mxCell id="fP9jHZuSAZ6qbJ5GN3kD-19" value="" style="endArrow=classic;html=1;rounded=0;entryX=0;entryY=0.5;entryDx=0;entryDy=0;" edge="1" parent="1" target="fP9jHZuSAZ6qbJ5GN3kD-5">
          <mxGeometry width="50" height="50" relative="1" as="geometry">
            <mxPoint x="460" y="385" as="sourcePoint" />
            <mxPoint x="430" y="420" as="targetPoint" />
          </mxGeometry>
        </mxCell>
        <mxCell id="fP9jHZuSAZ6qbJ5GN3kD-21" value="" style="endArrow=classic;html=1;rounded=0;exitX=1;exitY=0.5;exitDx=0;exitDy=0;entryX=0;entryY=0.5;entryDx=0;entryDy=0;" edge="1" parent="1" source="fP9jHZuSAZ6qbJ5GN3kD-5" target="fP9jHZuSAZ6qbJ5GN3kD-6">
          <mxGeometry width="50" height="50" relative="1" as="geometry">
            <mxPoint x="380" y="470" as="sourcePoint" />
            <mxPoint x="430" y="420" as="targetPoint" />
          </mxGeometry>
        </mxCell>
        <mxCell id="fP9jHZuSAZ6qbJ5GN3kD-22" value="" style="endArrow=classic;html=1;rounded=0;exitX=1;exitY=0.5;exitDx=0;exitDy=0;entryX=0;entryY=0.5;entryDx=0;entryDy=0;" edge="1" parent="1" source="fP9jHZuSAZ6qbJ5GN3kD-6" target="fP9jHZuSAZ6qbJ5GN3kD-7">
          <mxGeometry width="50" height="50" relative="1" as="geometry">
            <mxPoint x="380" y="470" as="sourcePoint" />
            <mxPoint x="430" y="420" as="targetPoint" />
          </mxGeometry>
        </mxCell>
        <mxCell id="fP9jHZuSAZ6qbJ5GN3kD-42" value="&lt;span style=&quot;color: rgb(31, 31, 31); font-family: Arial, sans-serif; text-align: left; text-wrap-mode: wrap; background-color: rgb(255, 255, 255);&quot;&gt;&lt;font style=&quot;font-size: 14px;&quot;&gt;μ&lt;/font&gt;&lt;/span&gt;" style="text;html=1;align=center;verticalAlign=middle;resizable=0;points=[];autosize=1;strokeColor=none;fillColor=none;" vertex="1" parent="1">
          <mxGeometry x="463.5" y="240" width="30" height="30" as="geometry" />
        </mxCell>
        <mxCell id="fP9jHZuSAZ6qbJ5GN3kD-43" value="" style="curved=1;endArrow=classic;html=1;rounded=0;exitX=0.5;exitY=0;exitDx=0;exitDy=0;entryX=0.5;entryY=0;entryDx=0;entryDy=0;" edge="1" parent="1" source="fP9jHZuSAZ6qbJ5GN3kD-1" target="fP9jHZuSAZ6qbJ5GN3kD-7">
          <mxGeometry width="50" height="50" relative="1" as="geometry">
            <mxPoint x="240" y="550" as="sourcePoint" />
            <mxPoint x="640" y="360" as="targetPoint" />
            <Array as="points">
              <mxPoint x="300" y="300" />
              <mxPoint x="440" y="260" />
              <mxPoint x="580" y="300" />
            </Array>
          </mxGeometry>
        </mxCell>
        <mxCell id="fP9jHZuSAZ6qbJ5GN3kD-45" value="" style="curved=1;endArrow=classic;html=1;rounded=0;exitX=1;exitY=0;exitDx=0;exitDy=0;entryX=0.5;entryY=0;entryDx=0;entryDy=0;" edge="1" parent="1" source="fP9jHZuSAZ6qbJ5GN3kD-1" target="fP9jHZuSAZ6qbJ5GN3kD-4">
          <mxGeometry width="50" height="50" relative="1" as="geometry">
            <mxPoint x="300" y="440" as="sourcePoint" />
            <mxPoint x="370" y="360" as="targetPoint" />
            <Array as="points">
              <mxPoint x="310" y="340" />
            </Array>
          </mxGeometry>
        </mxCell>
        <mxCell id="fP9jHZuSAZ6qbJ5GN3kD-46" value="" style="curved=1;endArrow=classic;html=1;rounded=0;entryX=0;entryY=1;entryDx=0;entryDy=0;exitX=0.5;exitY=1;exitDx=0;exitDy=0;" edge="1" parent="1" source="fP9jHZuSAZ6qbJ5GN3kD-5" target="fP9jHZuSAZ6qbJ5GN3kD-7">
          <mxGeometry width="50" height="50" relative="1" as="geometry">
            <mxPoint x="430" y="410" as="sourcePoint" />
            <mxPoint x="540" y="420" as="targetPoint" />
            <Array as="points">
              <mxPoint x="590" y="430" />
            </Array>
          </mxGeometry>
        </mxCell>
        <mxCell id="fP9jHZuSAZ6qbJ5GN3kD-47" value="" style="curved=1;endArrow=classic;html=1;rounded=0;entryX=0.5;entryY=0;entryDx=0;entryDy=0;" edge="1" parent="1" target="fP9jHZuSAZ6qbJ5GN3kD-6">
          <mxGeometry width="50" height="50" relative="1" as="geometry">
            <mxPoint x="240" y="370" as="sourcePoint" />
            <mxPoint x="665" y="380" as="targetPoint" />
            <Array as="points">
              <mxPoint x="300" y="320" />
              <mxPoint x="400" y="290" />
              <mxPoint x="510" y="320" />
            </Array>
          </mxGeometry>
        </mxCell>
        <mxCell id="fP9jHZuSAZ6qbJ5GN3kD-48" value="" style="curved=1;endArrow=classic;html=1;rounded=0;entryX=0.5;entryY=0;entryDx=0;entryDy=0;exitX=1;exitY=0;exitDx=0;exitDy=0;" edge="1" parent="1">
          <mxGeometry width="50" height="50" relative="1" as="geometry">
            <mxPoint x="240.30660171779817" y="374.3933982822018" as="sourcePoint" />
            <mxPoint x="509.7" y="370" as="targetPoint" />
            <Array as="points">
              <mxPoint x="294.7" y="340" />
              <mxPoint x="354.7" y="320" />
              <mxPoint x="444.7" y="330" />
            </Array>
          </mxGeometry>
        </mxCell>
        <mxCell id="fP9jHZuSAZ6qbJ5GN3kD-49" value="" style="curved=1;endArrow=classic;html=1;rounded=0;entryX=0.283;entryY=1.1;entryDx=0;entryDy=0;entryPerimeter=0;" edge="1" parent="1">
          <mxGeometry width="50" height="50" relative="1" as="geometry">
            <mxPoint x="380" y="400" as="sourcePoint" />
            <mxPoint x="640" y="403" as="targetPoint" />
            <Array as="points">
              <mxPoint x="440" y="430" />
              <mxPoint x="510" y="440" />
              <mxPoint x="580" y="430" />
            </Array>
          </mxGeometry>
        </mxCell>
        <mxCell id="fP9jHZuSAZ6qbJ5GN3kD-50" value="" style="curved=1;endArrow=classic;html=1;rounded=0;entryX=0.5;entryY=1;entryDx=0;entryDy=0;exitX=0.5;exitY=1;exitDx=0;exitDy=0;" edge="1" parent="1" source="fP9jHZuSAZ6qbJ5GN3kD-3" target="fP9jHZuSAZ6qbJ5GN3kD-7">
          <mxGeometry width="50" height="50" relative="1" as="geometry">
            <mxPoint x="170" y="410" as="sourcePoint" />
            <mxPoint x="565" y="500" as="targetPoint" />
            <Array as="points">
              <mxPoint x="380" y="450" />
              <mxPoint x="490" y="470" />
              <mxPoint x="590" y="450" />
            </Array>
          </mxGeometry>
        </mxCell>
        <mxCell id="fP9jHZuSAZ6qbJ5GN3kD-51" value="U4" style="text;html=1;align=center;verticalAlign=middle;resizable=0;points=[];autosize=1;strokeColor=none;fillColor=none;" vertex="1" parent="1">
          <mxGeometry x="423.5" y="280" width="40" height="30" as="geometry" />
        </mxCell>
        <mxCell id="fP9jHZuSAZ6qbJ5GN3kD-52" value="U3" style="text;html=1;align=center;verticalAlign=middle;resizable=0;points=[];autosize=1;strokeColor=none;fillColor=none;" vertex="1" parent="1">
          <mxGeometry x="364.7" y="298" width="40" height="30" as="geometry" />
        </mxCell>
        <mxCell id="fP9jHZuSAZ6qbJ5GN3kD-54" value="U2" style="text;html=1;align=center;verticalAlign=middle;resizable=0;points=[];autosize=1;strokeColor=none;fillColor=none;" vertex="1" parent="1">
          <mxGeometry x="300" y="328" width="40" height="30" as="geometry" />
        </mxCell>
        <mxCell id="fP9jHZuSAZ6qbJ5GN3kD-56" value="U1" style="text;html=1;align=center;verticalAlign=middle;resizable=0;points=[];autosize=1;strokeColor=none;fillColor=none;" vertex="1" parent="1">
          <mxGeometry x="250" y="360" width="40" height="30" as="geometry" />
        </mxCell>
        <mxCell id="fP9jHZuSAZ6qbJ5GN3kD-57" value="W2" style="text;html=1;align=center;verticalAlign=middle;resizable=0;points=[];autosize=1;strokeColor=none;fillColor=none;" vertex="1" parent="1">
          <mxGeometry x="320" y="360" width="40" height="30" as="geometry" />
        </mxCell>
        <mxCell id="fP9jHZuSAZ6qbJ5GN3kD-58" value="W3" style="text;html=1;align=center;verticalAlign=middle;resizable=0;points=[];autosize=1;strokeColor=none;fillColor=none;" vertex="1" parent="1">
          <mxGeometry x="453.5" y="358" width="40" height="30" as="geometry" />
        </mxCell>
        <mxCell id="fP9jHZuSAZ6qbJ5GN3kD-59" value="W4" style="text;html=1;align=center;verticalAlign=middle;resizable=0;points=[];autosize=1;strokeColor=none;fillColor=none;" vertex="1" parent="1">
          <mxGeometry x="530" y="358" width="40" height="30" as="geometry" />
        </mxCell>
        <mxCell id="fP9jHZuSAZ6qbJ5GN3kD-60" value="Y1" style="text;html=1;align=center;verticalAlign=middle;resizable=0;points=[];autosize=1;strokeColor=none;fillColor=none;" vertex="1" parent="1">
          <mxGeometry x="450" y="458" width="40" height="30" as="geometry" />
        </mxCell>
        <mxCell id="fP9jHZuSAZ6qbJ5GN3kD-61" value="Y4" style="text;html=1;align=center;verticalAlign=middle;resizable=0;points=[];autosize=1;strokeColor=none;fillColor=none;" vertex="1" parent="1">
          <mxGeometry x="600" y="358" width="40" height="30" as="geometry" />
        </mxCell>
        <mxCell id="fP9jHZuSAZ6qbJ5GN3kD-62" value="Y2" style="text;html=1;align=center;verticalAlign=middle;resizable=0;points=[];autosize=1;strokeColor=none;fillColor=none;" vertex="1" parent="1">
          <mxGeometry x="470" y="428" width="40" height="30" as="geometry" />
        </mxCell>
        <mxCell id="fP9jHZuSAZ6qbJ5GN3kD-64" value="Y3" style="text;html=1;align=center;verticalAlign=middle;resizable=0;points=[];autosize=1;strokeColor=none;fillColor=none;" vertex="1" parent="1">
          <mxGeometry x="540" y="408" width="40" height="30" as="geometry" />
        </mxCell>
      </root>
    </mxGraphModel>
  </diagram>
</mxfile>
